<svg id="Layer_1" enable-background="new 0 0 496 496" height="512" viewBox="0 0 496 496" width="512" xmlns="http://www.w3.org/2000/svg"><path d="m433.551 464h-31.551v-392c0-8.837-7.163-16-16-16h-120v-40c0-8.837-7.163-16-16-16h-111c-8.837 0-16 7.163-16 16v40h-13c-8.837 0-16 7.163-16 16v392h-31.551c-8.618 0-16.03 6.626-16.431 15.234-.428 9.189 6.888 16.766 15.982 16.766h114c4.418 0 8-3.582 8-8v-92h-6.548c-8.615 0-16.028-6.621-16.434-15.226-.433-9.188 6.889-16.774 15.982-16.774 4.831 0 145.545 0 141.548 0 8.615 0 16.028 6.621 16.434 15.226.433 9.188-6.888 16.774-15.982 16.774h-7v92c0 4.418 3.582 8 8 8h114c9.094 0 16.41-7.577 15.982-16.766-.401-8.608-7.813-15.234-16.431-15.234zm-224.551-133h-18c-8.836 0-16-7.164-16-16s7.164-16 16-16h18c8.836 0 16 7.164 16 16s-7.164 16-16 16zm0-60h-18c-8.836 0-16-7.164-16-16s7.164-16 16-16h18c8.836 0 16 7.164 16 16s-7.164 16-16 16zm0-60h-18c-8.836 0-16-7.164-16-16s7.164-16 16-16h18c8.836 0 16 7.164 16 16s-7.164 16-16 16zm0-60h-18c-8.836 0-16-7.164-16-16s7.164-16 16-16h18c8.836 0 16 7.164 16 16s-7.164 16-16 16zm95 180h-18c-8.837 0-16-7.164-16-16s7.163-16 16-16h18c8.837 0 16 7.164 16 16s-7.163 16-16 16zm0-60h-18c-8.837 0-16-7.164-16-16s7.163-16 16-16h18c8.837 0 16 7.164 16 16s-7.163 16-16 16zm0-60h-18c-8.837 0-16-7.164-16-16s7.163-16 16-16h18c8.837 0 16 7.164 16 16s-7.163 16-16 16zm0-60h-18c-8.837 0-16-7.164-16-16s7.163-16 16-16h18c8.837 0 16 7.164 16 16s-7.163 16-16 16zm-88 337v-84c0-4.418 3.582-8 8-8h48c4.418 0 8 3.582 8 8v84c0 4.418-3.582 8-8 8h-48c-4.418 0-8-3.582-8-8z"/></svg>