<?xml version="1.0" ?><svg viewBox="0 0 416.99 325.41" xmlns="http://www.w3.org/2000/svg"><defs><style>.cls-1{fill:#fff;}.cls-2{fill:#e1d2d5;}.cls-3{fill:#426572;}.cls-4{fill:#32caf8;}.cls-5{fill:#00a3eb;}</style></defs><title/><g data-name="Layer 2" id="Layer_2"><g data-name="Layer 1" id="Layer_1-2"><rect class="cls-1" height="139.16" rx="58.5" ry="58.5" width="404.39" x="6.59" y="6.59"/><path class="cls-2" d="M407.88,48a69.24,69.24,0,0,0-47.45-18.8H95.2a69.51,69.51,0,0,0-64.1,96.57A69.57,69.57,0,0,1,78.55,5.41H343.79A69.8,69.8,0,0,1,407.88,48Z"/><path class="cls-3" d="M351.89,151.16H64.5A64.57,64.57,0,0,1,0,86.66V64.5A64.57,64.57,0,0,1,64.5,0H351.89a64.57,64.57,0,0,1,64.5,64.5V86.66A64.57,64.57,0,0,1,351.89,151.16ZM64.5,12A52.56,52.56,0,0,0,12,64.5V86.66a52.56,52.56,0,0,0,52.5,52.5H351.89a52.56,52.56,0,0,0,52.5-52.5V64.5A52.56,52.56,0,0,0,351.89,12Z"/><circle class="cls-4" cx="105.31" cy="75.58" r="40.44"/><path class="cls-5" d="M144.56,75.58a40.44,40.44,0,0,1-71.19,26.27A40.45,40.45,0,0,0,123,39.79,40.44,40.44,0,0,1,144.56,75.58Z"/><path class="cls-3" d="M105.31,122a46.44,46.44,0,1,1,46.44-46.44A46.49,46.49,0,0,1,105.31,122Zm0-80.88a34.44,34.44,0,1,0,34.44,34.44A34.48,34.48,0,0,0,105.31,41.14Z"/><rect class="cls-4" height="139.16" rx="58.5" ry="58.5" width="404.39" x="6.59" y="180.25"/><path class="cls-5" d="M407.88,222.84A69.24,69.24,0,0,0,360.44,204H95.2a69.51,69.51,0,0,0-64.1,96.57A69.57,69.57,0,0,1,78.55,180.25H343.79A69.8,69.8,0,0,1,407.88,222.84Z"/><path class="cls-3" d="M352.49,325.41H65.09a64.57,64.57,0,0,1-64.5-64.5V238.75a64.57,64.57,0,0,1,64.5-64.5H352.49a64.57,64.57,0,0,1,64.5,64.5v22.16A64.57,64.57,0,0,1,352.49,325.41ZM65.09,186.25a52.56,52.56,0,0,0-52.5,52.5v22.16a52.56,52.56,0,0,0,52.5,52.5H352.49a52.56,52.56,0,0,0,52.5-52.5V238.75a52.56,52.56,0,0,0-52.5-52.5Z"/><circle class="cls-1" cx="309.89" cy="250.42" r="40.44"/><path class="cls-2" d="M349.14,250.42A40.44,40.44,0,0,1,278,276.69a40.45,40.45,0,0,0,49.6-62.06A40.44,40.44,0,0,1,349.14,250.42Z"/><path class="cls-3" d="M309.89,296.86a46.44,46.44,0,1,1,46.44-46.44A46.49,46.49,0,0,1,309.89,296.86Zm0-80.88a34.44,34.44,0,1,0,34.44,34.44A34.48,34.48,0,0,0,309.89,216Z"/></g></g></svg>