<?xml version="1.0" encoding="UTF-8" standalone="no"?>
<svg
   xmlns:dc="http://purl.org/dc/elements/1.1/"
   xmlns:cc="http://creativecommons.org/ns#"
   xmlns:rdf="http://www.w3.org/1999/02/22-rdf-syntax-ns#"
   xmlns:svg="http://www.w3.org/2000/svg"
   xmlns="http://www.w3.org/2000/svg"
   xmlns:sodipodi="http://sodipodi.sourceforge.net/DTD/sodipodi-0.dtd"
   xmlns:inkscape="http://www.inkscape.org/namespaces/inkscape"
   width="24"
   height="24"
   viewBox="0 0 24 24"
   version="1.1"
   id="svg3850"
   sodipodi:docname="watch_white.svg"
   inkscape:version="0.92.4 (5da689c313, 2019-01-14)">
  <metadata
     id="metadata3856">
    <rdf:RDF>
      <cc:Work
         rdf:about="">
        <dc:format>image/svg+xml</dc:format>
        <dc:type
           rdf:resource="http://purl.org/dc/dcmitype/StillImage" />
      </cc:Work>
    </rdf:RDF>
  </metadata>
  <defs
     id="defs3854" />
  <sodipodi:namedview
     pagecolor="#ffffff"
     bordercolor="#666666"
     borderopacity="1"
     objecttolerance="10"
     gridtolerance="10"
     guidetolerance="10"
     inkscape:pageopacity="0"
     inkscape:pageshadow="2"
     inkscape:window-width="1275"
     inkscape:window-height="832"
     id="namedview3852"
     showgrid="false"
     inkscape:zoom="9.8333333"
     inkscape:cx="12"
     inkscape:cy="12"
     inkscape:window-x="0"
     inkscape:window-y="0"
     inkscape:window-maximized="0"
     inkscape:current-layer="svg3850" />
  <path
     d="M0 0h24v24H0z"
     fill="none"
     id="path3846" />
  <path
     d="M12 4.5C7 4.5 2.73 7.61 1 12c1.73 4.39 6 7.5 11 7.5s9.27-3.11 11-7.5c-1.73-4.39-6-7.5-11-7.5zM12 17c-2.76 0-5-2.24-5-5s2.24-5 5-5 5 2.24 5 5-2.24 5-5 5zm0-8c-1.66 0-3 1.34-3 3s1.34 3 3 3 3-1.34 3-3-1.34-3-3-3z"
     id="path3848" />
  <path
     style="fill:#ffffff;stroke-width:0.10169491"
     d="M 10.60531,19.372945 C 8.867152,19.170592 7.0944473,18.519492 5.5399592,17.512487 3.8394511,16.410889 2.0767266,14.357123 1.2791623,12.548196 L 1.0231655,11.967579 1.4817387,11.051534 C 2.881234,8.2559071 5.4783776,6.0348616 8.4402552,5.1006965 11.345997,4.1842364 14.549056,4.4322031 17.237288,5.781724 c 2.260728,1.1349089 4.159609,3.0297762 5.280973,5.26981 l 0.458573,0.916045 -0.255996,0.580617 c -0.797564,1.808927 -2.560289,3.862693 -4.260798,4.964291 -2.382579,1.543449 -5.08321,2.183115 -7.85473,1.860458 z m 2.321488,-2.432117 c 0.721178,-0.135921 1.860143,-0.690028 2.420138,-1.177401 1.01567,-0.883952 1.644797,-2.317459 1.650449,-3.760653 0.0053,-1.350441 -0.406989,-2.4159009 -1.319523,-3.4100792 -1.967846,-2.143908 -5.387878,-2.143908 -7.3557233,0 -0.542642,0.5911921 -1.0084644,1.4220012 -1.2035894,2.1466402 -0.1990344,0.739157 -0.1537056,2.028495 0.097896,2.784557 0.4569824,1.373232 1.3172991,2.356663 2.6028535,2.975328 1.0768492,0.518228 2.0027872,0.649813 3.1074992,0.441608 z"
     id="path3858"
     inkscape:connector-curvature="0" />
  <path
     style="fill:#ffffff;stroke-width:0.10169491"
     d="M 10.82386,14.716229 C 9.8271411,14.263521 9.1641536,13.311003 9.0752989,12.20406 9.0081423,11.367431 9.2435104,10.682631 9.817734,10.043956 c 1.863644,-2.0728204 5.329087,-0.6070351 5.106967,2.160104 -0.08886,1.106943 -0.751842,2.059461 -1.748561,2.512169 -0.565069,0.256654 -1.787211,0.256654 -2.35228,0 z"
     id="path3860"
     inkscape:connector-curvature="0" />
</svg>
